<svg xmlns="http://www.w3.org/2000/svg" viewBox="0 0 512 512">
  <defs>
    <linearGradient id="bgGrad" x1="0%" y1="0%" x2="100%" y2="100%">
      <stop offset="0%" style="stop-color:#0a0a1a"/>
      <stop offset="50%" style="stop-color:#0d1b2a"/>
      <stop offset="100%" style="stop-color:#1b263b"/>
    </linearGradient>
    <linearGradient id="nodeGrad1" x1="0%" y1="0%" x2="100%" y2="100%">
      <stop offset="0%" style="stop-color:#00d4ff"/>
      <stop offset="100%" style="stop-color:#0099cc"/>
    </linearGradient>
    <linearGradient id="nodeGrad2" x1="0%" y1="0%" x2="100%" y2="100%">
      <stop offset="0%" style="stop-color:#a855f7"/>
      <stop offset="100%" style="stop-color:#7c3aed"/>
    </linearGradient>
    <linearGradient id="nodeGrad3" x1="0%" y1="0%" x2="100%" y2="100%">
      <stop offset="0%" style="stop-color:#22d3ee"/>
      <stop offset="100%" style="stop-color:#06b6d4"/>
    </linearGradient>
    <linearGradient id="centerGrad" x1="0%" y1="0%" x2="100%" y2="100%">
      <stop offset="0%" style="stop-color:#fbbf24"/>
      <stop offset="100%" style="stop-color:#f59e0b"/>
    </linearGradient>
    <linearGradient id="lineGrad" x1="0%" y1="0%" x2="100%" y2="100%">
      <stop offset="0%" style="stop-color:#00d4ff"/>
      <stop offset="50%" style="stop-color:#a855f7"/>
      <stop offset="100%" style="stop-color:#22d3ee"/>
    </linearGradient>
    <filter id="glow" x="-100%" y="-100%" width="300%" height="300%">
      <feGaussianBlur stdDeviation="4" result="blur"/>
      <feMerge>
        <feMergeNode in="blur"/>
        <feMergeNode in="SourceGraphic"/>
      </feMerge>
    </filter>
    <filter id="glowStrong" x="-100%" y="-100%" width="300%" height="300%">
      <feGaussianBlur stdDeviation="8" result="blur"/>
      <feMerge>
        <feMergeNode in="blur"/>
        <feMergeNode in="blur"/>
        <feMergeNode in="SourceGraphic"/>
      </feMerge>
    </filter>
    <filter id="innerShadow">
      <feOffset dx="0" dy="2"/>
      <feGaussianBlur stdDeviation="3"/>
      <feComposite operator="out" in="SourceGraphic"/>
      <feColorMatrix type="matrix" values="0 0 0 0 0  0 0 0 0 0  0 0 0 0 0  0 0 0 0.5 0"/>
      <feBlend mode="normal" in2="SourceGraphic"/>
    </filter>
  </defs>
  
  <rect width="512" height="512" rx="100" fill="url(#bgGrad)"/>
  
  <g opacity="0.1">
    <pattern id="grid" width="32" height="32" patternUnits="userSpaceOnUse">
      <path d="M 32 0 L 0 0 0 32" fill="none" stroke="#00d4ff" stroke-width="0.5"/>
    </pattern>
    <rect width="512" height="512" fill="url(#grid)"/>
  </g>
  
  <g opacity="0.08">
    <circle cx="256" cy="256" r="200" fill="none" stroke="#00d4ff" stroke-width="1"/>
    <circle cx="256" cy="256" r="150" fill="none" stroke="#a855f7" stroke-width="1"/>
    <circle cx="256" cy="256" r="100" fill="none" stroke="#22d3ee" stroke-width="1"/>
  </g>
  
  <g opacity="0.15">
    <line x1="256" y1="56" x2="256" y2="456" stroke="#00d4ff" stroke-width="0.5"/>
    <line x1="56" y1="256" x2="456" y2="256" stroke="#a855f7" stroke-width="0.5"/>
    <line x1="115" y1="115" x2="397" y2="397" stroke="#22d3ee" stroke-width="0.5"/>
    <line x1="397" y1="115" x2="115" y2="397" stroke="#00d4ff" stroke-width="0.5"/>
  </g>
  
  <g opacity="0.3" filter="url(#glow)">
    <line x1="256" y1="256" x2="256" y2="100" stroke="#00d4ff" stroke-width="1" stroke-dasharray="4,4"/>
    <line x1="256" y1="256" x2="400" y2="180" stroke="#a855f7" stroke-width="1" stroke-dasharray="4,4"/>
    <line x1="256" y1="256" x2="400" y2="332" stroke="#22d3ee" stroke-width="1" stroke-dasharray="4,4"/>
    <line x1="256" y1="256" x2="256" y2="412" stroke="#00d4ff" stroke-width="1" stroke-dasharray="4,4"/>
    <line x1="256" y1="256" x2="112" y2="332" stroke="#a855f7" stroke-width="1" stroke-dasharray="4,4"/>
    <line x1="256" y1="256" x2="112" y2="180" stroke="#22d3ee" stroke-width="1" stroke-dasharray="4,4"/>
  </g>
  
  <g filter="url(#glow)">
    <line x1="256" y1="256" x2="256" y2="100" stroke="url(#lineGrad)" stroke-width="3" stroke-linecap="round"/>
    <line x1="256" y1="256" x2="400" y2="180" stroke="url(#lineGrad)" stroke-width="3" stroke-linecap="round"/>
    <line x1="256" y1="256" x2="400" y2="332" stroke="url(#lineGrad)" stroke-width="3" stroke-linecap="round"/>
    <line x1="256" y1="256" x2="256" y2="412" stroke="url(#lineGrad)" stroke-width="3" stroke-linecap="round"/>
    <line x1="256" y1="256" x2="112" y2="332" stroke="url(#lineGrad)" stroke-width="3" stroke-linecap="round"/>
    <line x1="256" y1="256" x2="112" y2="180" stroke="url(#lineGrad)" stroke-width="3" stroke-linecap="round"/>
    
    <line x1="256" y1="100" x2="400" y2="180" stroke="#00d4ff" stroke-width="2" stroke-linecap="round" opacity="0.6"/>
    <line x1="400" y1="180" x2="400" y2="332" stroke="#a855f7" stroke-width="2" stroke-linecap="round" opacity="0.6"/>
    <line x1="400" y1="332" x2="256" y2="412" stroke="#22d3ee" stroke-width="2" stroke-linecap="round" opacity="0.6"/>
    <line x1="256" y1="412" x2="112" y2="332" stroke="#00d4ff" stroke-width="2" stroke-linecap="round" opacity="0.6"/>
    <line x1="112" y1="332" x2="112" y2="180" stroke="#a855f7" stroke-width="2" stroke-linecap="round" opacity="0.6"/>
    <line x1="112" y1="180" x2="256" y2="100" stroke="#22d3ee" stroke-width="2" stroke-linecap="round" opacity="0.6"/>
  </g>
  
  <g filter="url(#glow)">
    <polygon points="256,100 400,180 400,332 256,412 112,332 112,180" fill="none" stroke="url(#lineGrad)" stroke-width="1.5" opacity="0.4"/>
  </g>
  
  <g filter="url(#glow)">
    <circle cx="256" cy="100" r="24" fill="url(#nodeGrad1)"/>
    <circle cx="400" cy="180" r="22" fill="url(#nodeGrad2)"/>
    <circle cx="400" cy="332" r="22" fill="url(#nodeGrad3)"/>
    <circle cx="256" cy="412" r="24" fill="url(#nodeGrad1)"/>
    <circle cx="112" cy="332" r="22" fill="url(#nodeGrad2)"/>
    <circle cx="112" cy="180" r="22" fill="url(#nodeGrad3)"/>
  </g>
  
  <g filter="url(#glowStrong)">
    <circle cx="256" cy="256" r="65" fill="url(#centerGrad)"/>
    <circle cx="256" cy="256" r="55" fill="none" stroke="#fff" stroke-width="2" opacity="0.4"/>
    <circle cx="256" cy="256" r="75" fill="none" stroke="#fbbf24" stroke-width="1" opacity="0.3"/>
  </g>
  
  <text x="256" y="278" font-family="Arial, sans-serif" font-size="80" font-weight="bold" fill="#0a0a1a" text-anchor="middle" filter="url(#innerShadow)">S</text>
  
  <g opacity="0.5" filter="url(#glow)">
    <circle cx="180" cy="140" r="4" fill="#00d4ff"/>
    <circle cx="332" cy="140" r="4" fill="#a855f7"/>
    <circle cx="420" cy="256" r="4" fill="#22d3ee"/>
    <circle cx="332" cy="372" r="4" fill="#00d4ff"/>
    <circle cx="180" cy="372" r="4" fill="#a855f7"/>
    <circle cx="92" cy="256" r="4" fill="#22d3ee"/>
  </g>
  
  <g opacity="0.3">
    <line x1="180" y1="140" x2="256" y2="100" stroke="#00d4ff" stroke-width="1"/>
    <line x1="332" y1="140" x2="256" y2="100" stroke="#a855f7" stroke-width="1"/>
    <line x1="420" y1="256" x2="400" y2="180" stroke="#22d3ee" stroke-width="1"/>
    <line x1="420" y1="256" x2="400" y2="332" stroke="#00d4ff" stroke-width="1"/>
    <line x1="332" y1="372" x2="256" y2="412" stroke="#a855f7" stroke-width="1"/>
    <line x1="180" y1="372" x2="256" y2="412" stroke="#22d3ee" stroke-width="1"/>
    <line x1="92" y1="256" x2="112" y2="180" stroke="#00d4ff" stroke-width="1"/>
    <line x1="92" y1="256" x2="112" y2="332" stroke="#a855f7" stroke-width="1"/>
  </g>
  
  <g opacity="0.6">
    <circle cx="70" cy="100" r="2" fill="#00d4ff"/>
    <circle cx="442" cy="100" r="2" fill="#a855f7"/>
    <circle cx="70" cy="412" r="2" fill="#22d3ee"/>
    <circle cx="442" cy="412" r="2" fill="#00d4ff"/>
    <circle cx="50" cy="256" r="1.5" fill="#a855f7"/>
    <circle cx="462" cy="256" r="1.5" fill="#22d3ee"/>
  </g>
</svg>